<svg xmlns="http://www.w3.org/2000/svg" viewBox="0 0 800 360" font-family="'Noto Sans KR','Apple SD Gothic Neo','Malgun Gothic',sans-serif"><rect width="800" height="360" rx="18" fill="#EEF2F8"/><rect x="40" y="250" width="330" height="18" rx="9" fill="#CBD2DC"/><rect x="50" y="268" width="10" height="36" fill="#CBD2DC"/><rect x="350" y="268" width="10" height="36" fill="#CBD2DC"/><rect x="46" y="228" width="70" height="24" rx="12" fill="#FFFFFF"/><rect x="110" y="224" width="250" height="30" rx="15" fill="#2A5BA8" opacity="0.85"/><circle cx="90" cy="218" r="26" fill="#F2D3BC"/><path d="M66,214 Q74,186 102,194 Q86,202 70,224 Z" fill="#1E3F7A"/><rect x="30" y="206" width="30" height="12" rx="6" fill="#6B7280"/><rect x="54" y="203" width="14" height="18" rx="4" fill="#3A9A9E"/><path d="M72,202 q8,12 0,24" fill="none" stroke="#3A9A9E" stroke-width="3" opacity="0.95" stroke-linecap="round"/><path d="M82,202 q8,12 0,24" fill="none" stroke="#3A9A9E" stroke-width="3" opacity="0.6699999999999999" stroke-linecap="round"/><path d="M92,202 q8,12 0,24" fill="none" stroke="#3A9A9E" stroke-width="3" opacity="0.3899999999999999" stroke-linecap="round"/><text x="40" y="70" font-size="16" font-weight="700" fill="#2A2F38" text-anchor="start">관자놀이에 탐촉자를 대고</text><text x="40" y="94" font-size="16" font-weight="700" fill="#2A2F38" text-anchor="start">뇌혈관의 혈류를 측정합니다</text><rect x="40" y="112" width="202" height="24" rx="12" fill="#3A9A9E"/><text x="141.0" y="128.5" font-size="12" font-weight="700" fill="#FFFFFF" text-anchor="middle">통증 없음 · 20~40분</text><rect x="420" y="28" width="352" height="304" rx="14" fill="#FFFFFF" stroke="#CBD2DC"/><rect x="438" y="46" width="262" height="26" rx="13" fill="#DCE6F5"/><text x="450" y="64" font-size="13" font-weight="700" fill="#1E3F7A">결과 예시 · 도플러 혈류 파형</text><rect x="444" y="92" width="304" height="170" fill="#DCE6F5" opacity="0.35"/><line x1="444" x2="748" y1="130" y2="130" stroke="#CBD2DC" stroke-dasharray="3 5"/><line x1="444" x2="748" y1="170" y2="170" stroke="#CBD2DC" stroke-dasharray="3 5"/><line x1="444" x2="748" y1="210" y2="210" stroke="#CBD2DC" stroke-dasharray="3 5"/><line x1="444" x2="748" y1="250" y2="250" stroke="#CBD2DC" stroke-dasharray="3 5"/><polygon points="460.0,250.0 470.0,150.0 478.0,132.0 488.0,176.0 500.0,196.0 520.0,212.0 536.0,222.0 536.0,250.0 546.0,150.0 554.0,132.0 564.0,176.0 576.0,196.0 596.0,212.0 612.0,222.0 612.0,250.0 622.0,150.0 630.0,132.0 640.0,176.0 652.0,196.0 672.0,212.0 688.0,222.0 688.0,250.0 698.0,150.0 706.0,132.0 716.0,176.0 728.0,196.0 748.0,212.0 764.0,222.0 764.0,250.0 460.0,250.0" fill="#2A5BA8" opacity="0.18"/><polyline points="460.0,250.0 470.0,150.0 478.0,132.0 488.0,176.0 500.0,196.0 520.0,212.0 536.0,222.0 536.0,250.0 546.0,150.0 554.0,132.0 564.0,176.0 576.0,196.0 596.0,212.0 612.0,222.0 612.0,250.0 622.0,150.0 630.0,132.0 640.0,176.0 652.0,196.0 672.0,212.0 688.0,222.0 688.0,250.0 698.0,150.0 706.0,132.0 716.0,176.0 728.0,196.0 748.0,212.0 764.0,222.0 764.0,226.0" fill="none" stroke="#2A5BA8" stroke-width="2.5" stroke-linejoin="round" stroke-linecap="round" /><line x1="478" x2="560" y1="132" y2="110" stroke="#D0574B" stroke-width="1.5"/><text x="564" y="112" font-size="12" font-weight="700" fill="#D0574B" text-anchor="start">최고 혈류속도</text><text x="444" y="290" font-size="12" font-weight="500" fill="#6B7280" text-anchor="start">중대뇌동맥(MCA) 혈류가 빨라지거나 느려진 곳을 찾습니다</text></svg>